<?xml version="1.0" encoding="UTF-8"?>
<svg id="Layer_1" data-name="Layer 1" xmlns="http://www.w3.org/2000/svg" viewBox="0 0 4000 4000">
  <defs>
    <style>
      .cls-1 {
        fill: #cc2934;
      }

      .cls-2 {
        fill: #ffac30;
      }

      .cls-3 {
        fill: #ffe9c5;
      }

      .cls-4 {
        fill: #1b1b1e;
      }
    </style>
  </defs>
  <g>
    <path class="cls-1" d="M2275.72,518.71c7.63-1.45,15.38-2.84,23.23-4.16,3.39-.57,6.87-1.08,10.3-1.63,4.48-.72,8.92-1.45,13.46-2.13,4.67-.69,9.44-1.3,14.18-1.94,3.39-.46,6.74-.95,10.17-1.38,5.54-.7,11.18-1.31,16.8-1.93,2.69-.3,5.33-.63,8.04-.91,6.23-.64,12.55-1.19,18.87-1.73,2.17-.19,4.31-.41,6.5-.58,6.73-.54,13.55-.97,20.39-1.39,1.83-.11,3.64-.26,5.48-.36,7.15-.4,14.38-.69,21.63-.95,1.58-.06,3.13-.14,4.71-.19,7.45-.23,14.97-.35,22.52-.43,1.43-.01,2.85-.06,4.29-.07,7.65-.04,15.37.03,23.12.16,1.38.02,2.75.02,4.14.04,7.82.16,15.71.45,23.63.8,1.35.06,2.68.09,4.02.15,7.93.38,15.92.89,23.93,1.47,1.38.1,2.75.17,4.14.27,7.99.61,16.04,1.35,24.12,2.17,1.44.14,2.86.26,4.3.41,7.99.84,16.02,1.82,24.08,2.87,1.58.2,3.14.38,4.72.59,7.96,1.08,15.96,2.3,23.98,3.59,1.71.27,3.41.52,5.12.8,7.88,1.31,15.8,2.78,23.73,4.31,1.9.37,3.79.7,5.69,1.08,7.78,1.55,15.58,3.25,23.41,5.01,2.09.47,4.17.91,6.27,1.4,7.64,1.78,15.3,3.71,22.98,5.7,2.32.6,4.63,1.18,6.96,1.8,7.47,2,14.97,4.16,22.48,6.37,2.56.76,5.11,1.48,7.67,2.26,7.29,2.22,14.6,4.59,21.91,7.01,2.81.93,5.61,1.84,8.42,2.8,7.1,2.43,14.2,5,21.32,7.63,3.06,1.13,6.11,2.24,9.17,3.41,6.89,2.63,13.78,5.4,20.68,8.23,3.32,1.36,6.64,2.71,9.96,4.11,6.65,2.81,13.3,5.76,19.96,8.76,3.59,1.62,7.19,3.23,10.78,4.91,6.41,2.99,12.82,6.1,19.23,9.27,3.86,1.91,7.71,3.81,11.57,5.78,6.17,3.15,12.33,6.42,18.5,9.74,4.11,2.21,8.21,4.44,12.32,6.73,5.93,3.31,11.87,6.73,17.8,10.2,4.34,2.54,8.68,5.11,13.02,7.74,5.7,3.46,11.39,7.01,17.08,10.62,4.57,2.9,9.15,5.84,13.72,8.85,5.47,3.6,10.94,7.29,16.41,11.04,4.76,3.27,9.52,6.58,14.27,9.97,5.29,3.76,10.57,7.6,15.84,11.5,4.91,3.64,9.82,7.34,14.73,11.1,5.1,3.92,10.2,7.9,15.29,11.96,5.04,4.02,10.08,8.11,15.11,12.27,4.96,4.1,9.91,8.25,14.86,12.49,5.12,4.38,10.23,8.86,15.34,13.39,4.85,4.3,9.69,8.66,14.52,13.1,5.14,4.73,10.28,9.56,15.41,14.44,4.79,4.56,9.57,9.16,14.34,13.86,7.91,7.79,15.82,15.63,23.68,23.81.31.29.6.59.9.89,7.68,7.43,15.06,14.89,22.4,22.36,4.63,4.71,9.19,9.43,13.68,14.16,5.16,5.42,10.25,10.85,15.23,16.3,4.04,4.4,8.01,8.82,11.94,13.23,5.13,5.77,10.17,11.56,15.11,17.35,3.55,4.16,7.05,8.32,10.5,12.49,5.01,6.05,9.92,12.11,14.73,18.18,3.15,3.97,6.27,7.94,9.33,11.92,4.82,6.26,9.54,12.54,14.16,18.81,2.81,3.83,5.61,7.66,8.35,11.49,4.6,6.43,9.08,12.87,13.46,19.31,2.53,3.72,5.05,7.44,7.51,11.15,4.33,6.54,8.53,13.08,12.65,19.63,2.31,3.66,4.61,7.33,6.84,10.99,4.03,6.6,7.93,13.2,11.76,19.8,2.1,3.63,4.21,7.26,6.26,10.89,3.73,6.62,7.32,13.24,10.84,19.87,1.93,3.63,3.87,7.26,5.75,10.89,3.41,6.6,6.68,13.21,9.9,19.81,1.78,3.65,3.57,7.31,5.29,10.96,3.09,6.56,6.04,13.11,8.95,19.65,1.64,3.7,3.3,7.4,4.88,11.09,2.78,6.48,5.42,12.95,8.02,19.43,1.51,3.75,3.04,7.51,4.49,11.26,2.47,6.38,4.81,12.75,7.11,19.11,1.39,3.83,2.8,7.67,4.13,11.49,2.17,6.25,4.21,12.48,6.23,18.71,1.27,3.92,2.57,7.85,3.78,11.77,1.89,6.1,3.65,12.18,5.39,18.26,1.15,4.02,2.34,8.05,3.43,12.06,1.62,5.94,3.11,11.85,4.6,17.77,1.04,4.12,2.1,8.25,3.08,12.36,1.37,5.77,2.61,11.52,3.86,17.27.92,4.22,1.86,8.44,2.72,12.64,1.14,5.59,2.15,11.16,3.18,16.73.79,4.31,1.62,8.63,2.35,12.93.92,5.41,1.72,10.78,2.55,16.15.67,4.41,1.38,8.84,1.99,13.23.72,5.22,1.33,10.39,1.97,15.58.55,4.49,1.13,9,1.61,13.47.54,5.05.98,10.06,1.45,15.07.42,4.55.88,9.11,1.23,13.63.38,4.89.66,9.73.97,14.58.29,4.6.62,9.21.85,13.78.23,4.72.37,9.4.54,14.09.17,4.62.37,9.26.47,13.86.1,4.59.11,9.14.15,13.7.04,4.62.12,9.25.1,13.83-.02,4.47-.13,8.88-.21,13.31-.08,4.59-.12,9.21-.26,13.76-.13,4.38-.35,8.7-.54,13.05-.19,4.52-.35,9.07-.6,13.55-.24,4.28-.56,8.49-.84,12.74-.3,4.47-.56,8.97-.92,13.4-.33,4.22-.75,8.36-1.13,12.53-.4,4.35-.75,8.73-1.2,13.03-.44,4.29-.96,8.49-1.45,12.73-.47,4.1-.9,8.24-1.41,12.29-.56,4.48-1.2,8.87-1.81,13.29-.51,3.72-.99,7.48-1.53,11.16-.72,4.91-1.52,9.72-2.3,14.55-.5,3.1-.96,6.25-1.48,9.32-1.33,7.85-2.72,15.59-4.17,23.23-24.03,126.49-69.57,251.1-132.54,368.98-69.97,130.98-161.47,253.65-268.93,361.36-139.69,140.03-306.33,254.78-487.67,329.64-110.66,49.76-223.62,63.56-310.89,64.53-39.67.44-74.04-1.77-100.47-4.47-29.64-3.04-59.24-5.89-88.89-8.66l-943.88-943.88c-2.71-29-5.56-57.99-8.59-86.92-8.87-84.92-12.95-251.48,59.44-412.82l.33-.76c183.87-446.33,610.26-803.65,1061.01-889.14Z"/>
    <g>
      <path class="cls-3" d="M1183.79,2020.46l252.71,252.71-278.07,257.19c32.8-87.94,47.12-182.74,41.54-276.99l-.12-1.67c-4.9-82.41-10.18-158.41-16.06-231.23Z"/>
      <path class="cls-3" d="M503.2,3314.2c-19.86-30.63-14.7-70.72,12.25-95.33l458.35-419.63,2.38,2.58,513.76-475.2,201.11,201.11-467.86,505.84-426.88,466.41c-24.65,26.88-64.7,32.13-95.2,12.45-42.67-27.57-79.47-56.71-109.36-86.6-30.57-30.57-60.37-68.13-88.56-111.63Z"/>
      <path class="cls-3" d="M1491.83,2854.36l252.67-273.18,250.46,250.46c-77.03-6.26-155.31-11.75-233.1-16.38-91.56-5.42-183.98,8.04-270.03,39.1Z"/>
    </g>
    <path class="cls-4" d="M1154.82,1382.62c-18.28,40.75-33.26,84.77-44.43,130.51-30.62,125.36-27.8,240.41-20.03,314.85,3.35,31.91,6.47,63.89,9.42,95.85,9.48,102.26,17.61,211.15,24.85,332.89l.13,1.7c10.72,180.96-60.02,355.21-194.09,477.88l-466.05,426.68c-54.3,49.59-64.67,130.4-24.66,192.15,31.07,47.95,64.22,89.66,98.54,123.97s74.66,66.19,121.81,96.66c61.56,39.68,142.23,29.21,191.85-24.89l426.77-466.3c122.68-134.07,297.14-204.79,478.61-194.04,113.66,6.75,226.06,15.19,334.05,25.09,32.64,3.03,65.27,6.15,97.96,9.5,91.05,9.28,269.75,13.16,443.73-65.09,464.96-191.93,837.6-636.96,926.95-1107.27,68.92-362.76-37.29-706.7-299.07-968.48-5.16-5.16-10.41-10.32-15.68-15.41-5.26-5.48-10.84-11.17-16.46-16.79-260.34-260.34-603.25-365.87-965.56-297.15-72.64,13.76-146.11,34.63-218.37,61.98-389.86,147.65-731,479.38-890.27,865.72ZM1183.94,2020.31l252.71,252.71-278.07,257.19c32.8-87.94,47.12-182.74,41.54-276.99l-.12-1.67c-4.9-82.41-10.18-158.41-16.06-231.23ZM503.35,3314.05c-19.86-30.63-14.7-70.72,12.25-95.33l458.35-419.63,2.38,2.58,513.76-475.2,201.11,201.11-467.86,505.84-426.88,466.41c-24.65,26.88-64.7,32.13-95.2,12.45-42.67-27.57-79.47-56.71-109.36-86.6-30.57-30.57-60.37-68.13-88.56-111.63ZM1173.72,1903.27c-2.61-27.75-5.34-55.48-8.23-83.16-8.76-83.84-12.8-248.25,58.54-407.28l.46-1.07c182.54-443.1,605.73-797.81,1053.04-882.65,7.56-1.43,15.25-2.8,23.02-4.12,0,0,20.5-3.27,23.54-3.72,3.32-.49,14.05-1.92,14.05-1.92l10.06-1.37c4.85-.6,9.79-1.15,14.72-1.69l9.87-1.11c6.18-.63,12.44-1.18,18.7-1.73l6.42-.57c6.68-.54,13.43-.97,20.19-1.39l5.39-.35c7.12-.4,14.28-.69,21.45-.95l4.62-.19c7.41-.23,14.85-.35,22.31-.42l4.26-.07c7.57-.03,15.21.04,22.88.16l4.09.04c7.75.16,15.56.46,23.39.8l3.96.15c7.85.37,15.75.88,23.69,1.45l4.11.27c7.89.6,15.84,1.34,23.84,2.15l4.27.41c7.87.82,15.82,1.8,23.79,2.84l4.7.59c7.83,1.07,15.74,2.27,23.68,3.55l5.06.8c7.79,1.29,15.62,2.74,23.46,4.25l5.61,1.07c7.7,1.53,15.41,3.21,23.14,4.96l6.21,1.38c7.54,1.76,15.11,3.67,22.7,5.64l6.88,1.78c7.39,1.98,14.81,4.11,22.22,6.29l7.56,2.24c7.23,2.21,14.46,4.54,21.69,6.94l8.32,2.77c7.02,2.4,14.04,4.95,21.08,7.54l9.03,3.37c6.84,2.6,13.65,5.34,20.46,8.14,3.29,1.34,6.56,2.67,9.83,4.06,6.6,2.78,13.18,5.7,19.76,8.66,0,0,7.64,3.45,10.65,4.85,6.32,2.95,12.66,6.03,19,9.17,3.82,1.88,7.63,3.77,11.45,5.71,6.08,3.11,12.18,6.33,18.27,9.62,4.09,2.2,8.14,4.4,12.2,6.66,5.86,3.27,11.73,6.66,17.6,10.1,4.3,2.51,8.6,5.05,12.89,7.65,5.62,3.41,11.25,6.94,16.89,10.51,4.51,2.87,9.03,5.79,13.55,8.76,5.42,3.56,10.83,7.21,16.23,10.92,4.72,3.23,9.43,6.52,14.12,9.86,5.25,3.73,10.47,7.53,15.7,11.39,4.84,3.59,9.71,7.25,14.57,10.98,5.03,3.87,10.08,7.81,15.11,11.84,5.01,3.98,9.99,8.04,14.98,12.15,4.91,4.06,9.82,8.18,14.71,12.37,5.09,4.34,10.14,8.78,15.2,13.26,4.78,4.26,9.58,8.57,14.37,12.97,5.1,4.69,10.18,9.48,15.28,14.32,4.73,4.51,9.47,9.07,14.2,13.73,3.73,3.67,7.45,7.34,11.17,11.07,4.11,4.11,8.22,8.27,12.31,12.53l8.68-6.59-7.5,7.76c3.65,3.53,7.24,7.07,10.78,10.61,3.84,3.84,7.65,7.69,11.43,11.55,4.6,4.68,9.11,9.36,13.56,14.04,5.12,5.37,10.16,10.75,15.1,16.14,3.99,4.36,7.93,8.73,11.82,13.1,5.08,5.72,10.08,11.45,14.97,17.19,3.52,4.11,6.99,8.24,10.4,12.37,4.96,5.99,9.82,12,14.59,18,3.11,3.93,6.2,7.86,9.23,11.81,4.78,6.2,9.44,12.41,14.02,18.61,2.78,3.79,5.54,7.59,8.26,11.38,4.54,6.36,8.98,12.73,13.31,19.11,2.52,3.68,5,7.37,7.44,11.05,4.28,6.46,8.44,12.93,12.52,19.4,2.28,3.63,4.55,7.26,6.77,10.89,3.98,6.52,7.83,13.05,11.62,19.58,2.1,3.6,4.18,7.17,6.18,10.76,3.7,6.56,7.25,13.1,10.73,19.64,2.06,3.87,3.9,7.33,5.68,10.77,3.38,6.54,6.61,13.07,9.79,19.59,0,0,3.85,7.92,5.24,10.84,3.04,6.47,5.97,12.95,8.84,19.43,0,0,3.75,8.45,4.82,10.96,2.74,6.41,5.35,12.8,7.92,19.2l.46,1.13c1.35,3.33,2.7,6.68,3.99,10.01,2.45,6.31,4.75,12.6,7.03,18.89,0,0,3.15,8.68,4.07,11.34,2.16,6.2,4.17,12.35,6.16,18.52,0,0,2.84,8.73,3.73,11.62,1.87,6.04,3.61,12.04,5.32,18.05,0,0,2.52,8.74,3.39,11.93,1.49,5.46,2.87,10.9,4.25,16.33,0,0,2.69,10.71,3.35,13.45,1.24,5.27,2.39,10.53,3.54,15.78,0,0,2.39,10.94,2.97,13.79,1.08,5.39,2.07,10.76,3.06,16.14,0,0,1.88,10.1,2.4,13.16.83,4.88,1.56,9.73,2.31,14.57l.75,4.92c.5,3.18.99,6.37,1.42,9.55.58,4.12,1.07,8.2,1.56,12.28l.82,6.72c.41,3.26.81,6.5,1.16,9.75.41,3.77.75,7.53,1.09,11.28,0,0,1.31,14.02,1.55,17.11.29,3.81.96,14.43.96,14.43l.24,3.73c.22,3.3.43,6.6.59,9.88.18,3.54.3,7.03.42,10.54l.28,7.47c.12,3.23.24,6.45.31,9.65.08,3.6.11,7.14.13,10.7l.06,6.85c.04,3.24.08,6.49.06,9.71-.01,3.2-.21,13.16-.21,13.16,0,0-.15,10.23-.25,13.64-.1,3.15-.96,23.38-1.11,26.32-.17,2.93-1.5,22.75-1.75,25.87-.23,2.97-1.13,12.41-1.13,12.41,0,0-.86,9.78-1.18,12.9-.31,2.97-2.51,22.27-2.83,24.8-.4,3.15-3.31,24.2-3.31,24.2-.54,3.59-3.74,23.63-3.74,23.63-1.32,7.8-2.7,15.48-4.14,23.05-23.45,123.39-67.67,246.5-131.45,365.89-69.56,130.2-159.41,250.93-267.06,358.83-141.37,141.72-308.78,254.89-484.14,327.28-91.35,41.07-194.5,62.46-306.9,63.71-33.52.37-66.91-1.12-99.25-4.41-28.38-2.91-56.72-5.64-85.11-8.3l-938.38-938.38ZM1491.98,2854.21l252.67-273.18,250.46,250.46c-77.03-6.26-155.31-11.75-233.1-16.38-91.56-5.42-183.98,8.04-270.03,39.1Z"/>
  </g>
  <g>
    <circle class="cls-4" cx="1695.65" cy="847.53" r="447.81" transform="translate(-102.65 1447.24) rotate(-45)"/>
    <circle class="cls-2" cx="1695.65" cy="847.53" r="373.5" transform="translate(-102.65 1447.24) rotate(-45)"/>
  </g>
</svg>